<svg xmlns="http://www.w3.org/2000/svg" width="145" height="40" viewBox="0 0 145 40">
    <g fill="none" fill-rule="evenodd">
        <path fill="#FFC600" d="M18.836 23.834v11.625a4.38 4.38 0 0 0 1.395-.504l9.568-5.53a4.563 4.563 0 0 0 2.269-3.942V14.45a4.41 4.41 0 0 0-.201-1.297l-10.401 6.032c-2.138 1.52-2.6 2.959-2.63 4.648"/>
        <path fill="#F6EB61" d="M35.662 10.953l-3.795 2.2c.128.417.2.852.2 1.298v11.032c0 1.622-.869 3.133-2.268 3.942l-9.568 5.53c-.438.254-.911.413-1.395.504v4.39a5.447 5.447 0 0 0 1.923-.661l12.426-7.183a5.645 5.645 0 0 0 2.806-4.875V12.804c0-.63-.115-1.249-.33-1.851"/>
        <path fill="#439879" d="M17.964 20.18c.566-.928 1.409-1.73 2.62-2.497l10.468-6.072A4.433 4.433 0 0 0 29.8 10.51l-9.568-5.53a4.518 4.518 0 0 0-4.516.002l-9.529 5.527a4.43 4.43 0 0 0-1.27 1.128l10.42 6.043c1.219.771 2.062 1.573 2.628 2.5"/>
        <path fill="#28CDFB" d="M6.186 10.507l9.529-5.526a4.518 4.518 0 0 1 4.516-.003l9.568 5.531c.494.285.91.667 1.253 1.102l3.79-2.197a5.485 5.485 0 0 0-1.657-1.485L20.759.746a5.588 5.588 0 0 0-5.584.003L2.8 7.927a5.565 5.565 0 0 0-1.67 1.512l3.786 2.196a4.44 4.44 0 0 1 1.27-1.128"/>
        <path fill="#FDD757" d="M15.715 34.953l-9.529-5.528a4.562 4.562 0 0 1-2.263-3.938v-11.04c0-.434.07-.858.19-1.263L.315 10.982A5.522 5.522 0 0 0 0 12.798v14.338a5.641 5.641 0 0 0 2.8 4.87l12.374 7.178c.587.34 1.231.558 1.917.663v-4.393a4.37 4.37 0 0 1-1.376-.501"/>
        <path fill="#EC8B00" d="M14.445 19.174l-10.332-5.99c-.12.406-.19.829-.19 1.262v11.041c0 1.62.867 3.13 2.263 3.939l9.53 5.527c.432.25.898.41 1.375.5V23.83c-.03-1.686-.491-3.124-2.646-4.656"/>
        <g fill="#2A506F">
            <path d="M54.581 19.32c-.945.766-1.417 1.743-1.417 2.93 0 1.257.434 2.311 1.304 3.163.869.853 2.013 1.278 3.43 1.278 1.341 0 2.427-.405 3.26-1.217.83-.811 1.247-1.821 1.247-3.03 0-1.191-.417-2.205-1.248-3.042-.832-.838-1.918-1.257-3.26-1.257-1.266.018-2.371.41-3.316 1.175zm-4.96-8.844h3.77v6.274h.056c.416-.55.968-.976 1.659-1.277.69-.301 1.403-.504 2.14-.607a10.27 10.27 0 0 1 1.049-.052c2.305 0 4.194.767 5.669 2.298 1.473 1.532 2.21 3.305 2.21 5.319 0 .293-.019.598-.056.916a5.448 5.448 0 0 1-.199.943 8.15 8.15 0 0 1-.68 1.808 6.973 6.973 0 0 1-1.077 1.549 6.78 6.78 0 0 1-2.58 1.768 8.54 8.54 0 0 1-3.174.607c-1.077 0-2.074-.186-2.99-.555-.918-.37-1.678-.976-2.282-1.82l-.057-.026v1.936H49.62v-19.08zM80.659 22.38c0-1.188-.421-2.19-1.262-3.009-.84-.817-1.932-1.217-3.273-1.2-1.38-.017-2.51.396-3.388 1.239-.879.844-1.318 1.894-1.318 3.15 0 1.17.458 2.156 1.375 2.956.916.8 2.008 1.193 3.273 1.175 1.362.018 2.467-.387 3.317-1.213.85-.826 1.276-1.85 1.276-3.072v-.026zm3.571 7.177h-3.458v-1.936h-.056c-.473.619-1.097 1.128-1.872 1.523a8.216 8.216 0 0 1-2.409.8l-.524.053a5.62 5.62 0 0 1-.524.025c-1.21 0-2.307-.211-3.288-.633a7.182 7.182 0 0 1-2.495-1.742 7.436 7.436 0 0 1-1.445-2.376 7.93 7.93 0 0 1-.51-2.84c0-.998.155-1.919.466-2.763.313-.843.828-1.635 1.546-2.375.793-.844 1.676-1.468 2.65-1.872.973-.404 2.035-.607 3.189-.607 1.077 0 2.07.211 2.976.633a6.124 6.124 0 0 1 2.296 1.846v-2.04h3.458v14.304zM87.036 29.557h3.77v-19.08h-3.77zM105.743 20.882c-.302-.844-.85-1.506-1.644-1.988a4.98 4.98 0 0 0-2.636-.723h-.227a5.406 5.406 0 0 0-2.55.806c-.794.486-1.323 1.12-1.588 1.905h8.645zm-8.588 3.047a3.784 3.784 0 0 0 1.573 2.013c.766.5 1.62.75 2.566.75.717 0 1.392-.112 2.025-.336.634-.224 1.13-.525 1.49-.904l4.166-.026c-.473 1.291-1.431 2.38-2.877 3.266-1.445.887-3 1.33-4.663 1.33-2.286 0-4.237-.727-5.853-2.182-1.616-1.454-2.424-3.223-2.424-5.306 0-2.117.803-3.933 2.41-5.448 1.606-1.514 3.58-2.272 5.924-2.272 2.248 0 4.152.751 5.712 2.253 1.558 1.502 2.338 3.248 2.338 5.24 0 .223-.015.442-.043.656-.028.214-.062.425-.1.63-.018.07-.032.13-.041.181a.848.848 0 0 0-.014.155H97.155zM111.98 15.253h3.486v1.317h.057c.434-.533 1.006-.946 1.715-1.24a7.018 7.018 0 0 1 2.225-.516H120.03c.075 0 .151.01.226.026a6.57 6.57 0 0 1 2.197.542c.71.31 1.319.715 1.829 1.213.075.07.146.135.212.194.066.06.127.134.185.22.604.775.963 1.601 1.076 2.479.114.878.17 1.773.17 2.685v7.384h-3.77v-7.41c0-.241-.01-.482-.028-.723a6.927 6.927 0 0 0-.198-1.097 3.402 3.402 0 0 0-.425-.969 2.618 2.618 0 0 0-1.007-.826 3.632 3.632 0 0 0-1.317-.361h-.354a.985.985 0 0 0-.214.026c-.435.05-.86.185-1.275.4a2.501 2.501 0 0 0-.964.839c-.188.276-.33.598-.425.968-.095.37-.151.745-.17 1.123-.02.225-.028.448-.028.672V29.557h-3.77V15.253zM141.317 22.38c0-1.188-.421-2.19-1.262-3.009-.84-.817-1.932-1.217-3.273-1.2-1.38-.017-2.509.396-3.388 1.239-.878.844-1.318 1.894-1.318 3.15 0 1.17.459 2.156 1.375 2.956.917.8 2.008 1.193 3.274 1.175 1.36.018 2.466-.387 3.316-1.213.85-.826 1.276-1.85 1.276-3.072v-.026zm3.572 7.177h-3.459v-1.936h-.056c-.473.619-1.097 1.128-1.871 1.523a8.225 8.225 0 0 1-2.41.8l-.524.053a5.61 5.61 0 0 1-.524.025c-1.21 0-2.307-.211-3.288-.633a7.174 7.174 0 0 1-2.495-1.742 7.427 7.427 0 0 1-1.445-2.376 7.93 7.93 0 0 1-.511-2.84c0-.998.157-1.919.468-2.763.312-.843.826-1.635 1.545-2.375.794-.844 1.677-1.468 2.65-1.872.973-.404 2.036-.607 3.189-.607 1.077 0 2.07.211 2.976.633a6.124 6.124 0 0 1 2.296 1.846v-2.04h3.459v14.304z"/>
        </g>
    </g>
</svg>
